<svg xmlns="http://www.w3.org/2000/svg" width="96" height="96" viewBox="0 0 120 120">
  <rect width="120" height="120" rx="24" fill="#f8fafc"/>
  <g transform="translate(4 11) scale(.78)" fill="none" stroke="#082a57" stroke-width="6" stroke-linecap="round" stroke-linejoin="round">
    <path d="M25 44 62 24l38 21v43l-38 22-37-22z"/>
    <path d="M25 44 62 66l38-21M62 66v44"/>
    <path d="M45 31v34M45 31l38 21M45 31l22-12 38 21v34"/>
    <path d="M67 19v33M84 31l31-31M100 45l34-18M100 62l42-4"/>
    <path d="M15 77A58 58 0 0 1 81 1"/>
    <path d="M11 59A43 43 0 0 1 75 17"/>
    <path d="M23 48A31 31 0 0 1 66 28"/>
  </g>
  <g fill="#082a57" transform="translate(4 11) scale(.78)">
    <circle cx="116" cy="0" r="9"/>
    <circle cx="135" cy="27" r="9"/>
    <circle cx="146" cy="58" r="9"/>
  </g>
</svg>
